<?xml version="1.0" encoding="UTF-8"?>
<!DOCTYPE svg PUBLIC "-//W3C//DTD SVG 1.1//EN" "http://www.w3.org/Graphics/SVG/1.1/DTD/svg11.dtd">
<svg xmlns="http://www.w3.org/2000/svg" version="1.1" width="500px" height="500px" style="shape-rendering:geometricPrecision; text-rendering:geometricPrecision; image-rendering:optimizeQuality; fill-rule:evenodd; clip-rule:evenodd" xmlns:xlink="http://www.w3.org/1999/xlink">
<g><path style="opacity:0.985" fill="#f2f2f2" d="M 244.5,126.5 C 243.094,126.973 242.427,127.973 242.5,129.5C 242.5,129.833 242.5,130.167 242.5,130.5C 241.094,130.973 240.427,131.973 240.5,133.5C 233.965,148.904 226.631,163.904 218.5,178.5C 217.596,179.209 217.263,180.209 217.5,181.5C 225.167,181.5 232.833,181.5 240.5,181.5C 240.5,182.5 240.5,183.5 240.5,184.5C 240.416,187.327 239.75,189.994 238.5,192.5C 237.069,193.78 236.402,195.447 236.5,197.5C 236.5,197.833 236.5,198.167 236.5,198.5C 235.691,199.469 234.691,200.302 233.5,201C 234.38,202.356 234.714,203.856 234.5,205.5C 232.837,207.438 232.171,209.772 232.5,212.5C 230.082,224.919 226.749,237.086 222.5,249C 207.17,249.5 191.837,249.667 176.5,249.5C 176.5,247.5 176.5,245.5 176.5,243.5C 183.833,243.5 191.167,243.5 198.5,243.5C 198.5,223.833 198.5,204.167 198.5,184.5C 191.137,184.831 183.803,184.497 176.5,183.5C 182.161,178.173 187.827,172.84 193.5,167.5C 194.833,167.5 195.5,166.833 195.5,165.5C 212.964,149.204 230.298,132.704 247.5,116C 248.483,115.409 249.15,115.743 249.5,117C 248.21,120.415 246.544,123.582 244.5,126.5 Z M 215.5,196.5 C 215.5,198.833 215.5,201.167 215.5,203.5C 213.167,203.5 210.833,203.5 208.5,203.5C 208.5,201.167 208.5,198.833 208.5,196.5C 210.833,196.5 213.167,196.5 215.5,196.5 Z M 218.5,196.5 C 221.167,196.5 223.833,196.5 226.5,196.5C 226.5,198.833 226.5,201.167 226.5,203.5C 223.833,203.5 221.167,203.5 218.5,203.5C 218.5,201.167 218.5,198.833 218.5,196.5 Z M 215.5,213.5 C 213.167,213.5 210.833,213.5 208.5,213.5C 208.5,211.833 208.5,210.167 208.5,208.5C 210.607,207.532 212.941,207.198 215.5,207.5C 215.5,209.5 215.5,211.5 215.5,213.5 Z M 218.5,207.5 C 221.167,207.5 223.833,207.5 226.5,207.5C 226.5,209.5 226.5,211.5 226.5,213.5C 223.833,213.5 221.167,213.5 218.5,213.5C 218.5,211.5 218.5,209.5 218.5,207.5 Z"/></g>
<g><path style="opacity:0.994" fill="#f3f3f3" d="M 231.5,241.5 C 232.906,241.027 233.573,240.027 233.5,238.5C 233.833,237.833 234.167,237.167 234.5,236.5C 235.906,236.027 236.573,235.027 236.5,233.5C 240.847,226.797 245.18,220.13 249.5,213.5C 250.906,213.027 251.573,212.027 251.5,210.5C 252.779,207.562 254.445,204.896 256.5,202.5C 257.906,202.027 258.573,201.027 258.5,199.5C 261.768,194.625 264.768,189.625 267.5,184.5C 268.906,184.027 269.573,183.027 269.5,181.5C 270.906,181.027 271.573,180.027 271.5,178.5C 274.916,172.568 278.582,166.735 282.5,161C 271.839,160.5 261.172,160.333 250.5,160.5C 252.108,150.195 253.608,139.862 255,129.5C 255.151,126.881 255.985,124.547 257.5,122.5C 279.495,142.495 301.161,162.828 322.5,183.5C 315.197,184.497 307.863,184.831 300.5,184.5C 300.5,204.167 300.5,223.833 300.5,243.5C 307.833,243.5 315.167,243.5 322.5,243.5C 322.5,245.5 322.5,247.5 322.5,249.5C 311.5,249.5 300.5,249.5 289.5,249.5C 289.5,234.833 289.5,220.167 289.5,205.5C 280.5,205.5 271.5,205.5 262.5,205.5C 262.5,220.167 262.5,234.833 262.5,249.5C 250.493,250.778 238.493,250.611 226.5,249C 228.452,246.574 230.119,244.074 231.5,241.5 Z"/></g>
<g><path style="opacity:0.078" fill="#474747" d="M 244.5,126.5 C 244.573,128.027 243.906,129.027 242.5,129.5C 242.427,127.973 243.094,126.973 244.5,126.5 Z"/></g>
<g><path style="opacity:0.059" fill="#444444" d="M 242.5,130.5 C 242.573,132.027 241.906,133.027 240.5,133.5C 240.427,131.973 241.094,130.973 242.5,130.5 Z"/></g>
<g><path style="opacity:0.373" fill="#3f3f3f" d="M 195.5,165.5 C 195.5,166.833 194.833,167.5 193.5,167.5C 193.833,166.5 194.5,165.833 195.5,165.5 Z"/></g>
<g><path style="opacity:0.275" fill="#585858" d="M 218.5,178.5 C 225.76,180.465 233.427,181.132 241.5,180.5C 241.768,182.099 241.434,183.432 240.5,184.5C 240.5,183.5 240.5,182.5 240.5,181.5C 232.833,181.5 225.167,181.5 217.5,181.5C 217.263,180.209 217.596,179.209 218.5,178.5 Z"/></g>
<g><path style="opacity:0.18" fill="#5e5e5e" d="M 271.5,178.5 C 271.573,180.027 270.906,181.027 269.5,181.5C 269.427,179.973 270.094,178.973 271.5,178.5 Z"/></g>
<g><path style="opacity:0.102" fill="#3a3a3a" d="M 269.5,181.5 C 269.573,183.027 268.906,184.027 267.5,184.5C 267.427,182.973 268.094,181.973 269.5,181.5 Z"/></g>
<g><path style="opacity:0.208" fill="#696969" d="M 238.5,192.5 C 238.598,194.553 237.931,196.22 236.5,197.5C 236.402,195.447 237.069,193.78 238.5,192.5 Z"/></g>
<g><path style="opacity:0.678" fill="#898989" d="M 236.5,198.5 C 236.279,201.067 235.612,203.401 234.5,205.5C 234.714,203.856 234.38,202.356 233.5,201C 234.691,200.302 235.691,199.469 236.5,198.5 Z"/></g>
<g><path style="opacity:0.443" fill="#656565" d="M 258.5,199.5 C 258.573,201.027 257.906,202.027 256.5,202.5C 256.427,200.973 257.094,199.973 258.5,199.5 Z"/></g>
<g><path style="opacity:0.486" fill="#7f7f7f" d="M 215.5,196.5 C 213.167,196.5 210.833,196.5 208.5,196.5C 208.5,198.833 208.5,201.167 208.5,203.5C 210.833,203.5 213.167,203.5 215.5,203.5C 213.052,204.473 210.385,204.806 207.5,204.5C 207.5,201.5 207.5,198.5 207.5,195.5C 210.385,195.194 213.052,195.527 215.5,196.5 Z"/></g>
<g><path style="opacity:0.408" fill="#7b7b7b" d="M 234.5,205.5 C 234.279,208.067 233.612,210.401 232.5,212.5C 232.171,209.772 232.837,207.438 234.5,205.5 Z"/></g>
<g><path style="opacity:0.176" fill="#585858" d="M 251.5,210.5 C 251.573,212.027 250.906,213.027 249.5,213.5C 249.427,211.973 250.094,210.973 251.5,210.5 Z"/></g>
<g><path style="opacity:0.024" fill="#3a3a3a" d="M 208.5,208.5 C 208.5,210.167 208.5,211.833 208.5,213.5C 210.833,213.5 213.167,213.5 215.5,213.5C 213.052,214.473 210.385,214.806 207.5,214.5C 207.205,212.265 207.539,210.265 208.5,208.5 Z"/></g>
<g><path style="opacity:0.145" fill="#4d4d4d" d="M 236.5,233.5 C 236.573,235.027 235.906,236.027 234.5,236.5C 234.427,234.973 235.094,233.973 236.5,233.5 Z"/></g>
<g><path style="opacity:0.204" fill="#737373" d="M 233.5,238.5 C 233.573,240.027 232.906,241.027 231.5,241.5C 231.427,239.973 232.094,238.973 233.5,238.5 Z"/></g>
<g><path style="opacity:0.974" fill="#e9e9e9" d="M 223.5,295.5 C 223.595,297.786 224.262,299.786 225.5,301.5C 226.225,307.275 225.059,312.608 222,317.5C 220.887,318.305 219.721,318.972 218.5,319.5C 213.537,320.254 208.537,320.587 203.5,320.5C 199.732,319.863 196.899,317.863 195,314.5C 189.577,294.266 197.077,285.766 217.5,289C 220.409,290.406 222.409,292.572 223.5,295.5 Z M 206.5,296.5 C 212.19,296.354 215.19,299.187 215.5,305C 214.812,312.512 211.312,314.345 205,310.5C 202.774,305.525 203.274,300.858 206.5,296.5 Z"/></g>
<g><path style="opacity:0.969" fill="#e6e6e6" d="M 249.5,289.5 C 253.179,289.06 256.512,289.727 259.5,291.5C 260.727,296.466 261.894,301.466 263,306.5C 265.135,300.687 266.302,294.687 266.5,288.5C 269.833,288.5 273.167,288.5 276.5,288.5C 274.197,298.842 271.697,309.175 269,319.5C 265.214,320.795 261.38,320.795 257.5,319.5C 256.234,314.198 255.067,308.865 254,303.5C 252.405,309.067 251.238,314.734 250.5,320.5C 246.486,320.666 242.486,320.499 238.5,320C 237.518,317.262 236.852,314.428 236.5,311.5C 236.829,308.772 236.163,306.438 234.5,304.5C 233.04,299.201 231.707,293.868 230.5,288.5C 233.833,288.5 237.167,288.5 240.5,288.5C 241.572,294.933 243.072,301.266 245,307.5C 246.397,301.432 247.897,295.432 249.5,289.5 Z"/></g>
<g><path style="opacity:0.265" fill="#3d3d3d" d="M 249.5,289.5 C 252.625,288.521 255.958,288.187 259.5,288.5C 259.5,289.5 259.5,290.5 259.5,291.5C 256.512,289.727 253.179,289.06 249.5,289.5 Z"/></g>
<g><path style="opacity:0.991" fill="#f5f5f5" d="M 179.5,289.5 C 181.674,289.75 183.341,290.75 184.5,292.5C 185.833,297.167 185.833,301.833 184.5,306.5C 184.5,307.167 184.167,307.5 183.5,307.5C 179.686,308.368 176.019,309.368 172.5,310.5C 172.5,313.833 172.5,317.167 172.5,320.5C 168.958,320.813 165.625,320.479 162.5,319.5C 163.494,309.681 163.827,299.681 163.5,289.5C 168.833,289.5 174.167,289.5 179.5,289.5 Z M 172.5,296.5 C 175.484,296.787 176.817,298.454 176.5,301.5C 175.292,302.234 173.959,302.567 172.5,302.5C 172.5,300.5 172.5,298.5 172.5,296.5 Z"/></g>
<g><path style="opacity:0.984" fill="#f3f3f3" d="M 302.5,288.5 C 303.117,288.611 303.617,288.944 304,289.5C 304.497,291.81 304.663,294.143 304.5,296.5C 300.833,296.5 297.167,296.5 293.5,296.5C 293.5,297.833 293.5,299.167 293.5,300.5C 296.287,301.477 299.287,301.81 302.5,301.5C 302.5,303.5 302.5,305.5 302.5,307.5C 299.5,307.5 296.5,307.5 293.5,307.5C 292.539,309.265 292.205,311.265 292.5,313.5C 295.713,313.81 298.713,313.477 301.5,312.5C 302.496,312.414 303.329,312.748 304,313.5C 304.497,315.81 304.663,318.143 304.5,320.5C 297.313,320.825 290.313,320.491 283.5,319.5C 284.494,309.681 284.827,299.681 284.5,289.5C 290.69,289.823 296.69,289.49 302.5,288.5 Z"/></g>
<g><path style="opacity:0.988" fill="#e9e9e9" d="M 333.5,291.5 C 333.833,292.5 334.5,293.167 335.5,293.5C 338.686,298.693 337.686,303.026 332.5,306.5C 331.285,307.779 331.618,308.779 333.5,309.5C 333.427,311.027 334.094,312.027 335.5,312.5C 335.427,314.027 336.094,315.027 337.5,315.5C 338.947,316.622 339.947,318.122 340.5,320C 336.833,320.667 333.167,320.667 329.5,320C 327.277,316.615 325.277,313.115 323.5,309.5C 323.44,308.957 323.107,308.624 322.5,308.5C 321.509,312.445 321.176,316.445 321.5,320.5C 318.5,320.5 315.5,320.5 312.5,320.5C 312.5,309.833 312.5,299.167 312.5,288.5C 318.176,288.334 323.843,288.501 329.5,289C 331.066,289.608 332.4,290.442 333.5,291.5 Z M 322.5,296.5 C 328.999,297.856 329.165,299.856 323,302.5C 322.505,300.527 322.338,298.527 322.5,296.5 Z"/></g>
<g><path style="opacity:0.004" fill="#3c3c3c" d="M 333.5,291.5 C 334.833,291.5 335.5,292.167 335.5,293.5C 334.5,293.167 333.833,292.5 333.5,291.5 Z"/></g>
<g><path style="opacity:0.395" fill="#7d7d7d" d="M 179.5,289.5 C 174.167,289.5 168.833,289.5 163.5,289.5C 163.827,299.681 163.494,309.681 162.5,319.5C 162.5,309.167 162.5,298.833 162.5,288.5C 168.358,288.178 174.025,288.511 179.5,289.5 Z"/></g>
<g><path style="opacity:0.33" fill="#6f6f6f" d="M 302.5,288.5 C 296.69,289.49 290.69,289.823 284.5,289.5C 284.827,299.681 284.494,309.681 283.5,319.5C 283.5,309.167 283.5,298.833 283.5,288.5C 289.833,288.5 296.167,288.5 302.5,288.5 Z"/></g>
<g><path style="opacity:0.678" fill="#aaaaaa" d="M 184.5,292.5 C 185.117,292.611 185.617,292.944 186,293.5C 186.667,297.5 186.667,301.5 186,305.5C 185.617,306.056 185.117,306.389 184.5,306.5C 185.833,301.833 185.833,297.167 184.5,292.5 Z"/></g>
<g><path style="opacity:0.075" fill="#464646" d="M 223.5,295.5 C 225.074,297.102 225.741,299.102 225.5,301.5C 224.262,299.786 223.595,297.786 223.5,295.5 Z"/></g>
<g><path style="opacity:0.565" fill="#828282" d="M 293.5,300.5 C 296.833,300.5 300.167,300.5 303.5,300.5C 303.802,303.059 303.468,305.393 302.5,307.5C 302.5,305.5 302.5,303.5 302.5,301.5C 299.287,301.81 296.287,301.477 293.5,300.5 Z"/></g>
<g><path style="opacity:0.627" fill="#959595" d="M 172.5,296.5 C 172.5,298.5 172.5,300.5 172.5,302.5C 173.959,302.567 175.292,302.234 176.5,301.5C 175.448,303.256 173.781,303.923 171.5,303.5C 171.198,300.941 171.532,298.607 172.5,296.5 Z"/></g>
<g><path style="opacity:0.337" fill="#767676" d="M 234.5,304.5 C 236.163,306.438 236.829,308.772 236.5,311.5C 235.388,309.401 234.721,307.067 234.5,304.5 Z"/></g>
<g><path style="opacity:0.39" fill="#7a7a7a" d="M 293.5,307.5 C 293.5,309.167 293.5,310.833 293.5,312.5C 296.167,312.5 298.833,312.5 301.5,312.5C 298.713,313.477 295.713,313.81 292.5,313.5C 292.205,311.265 292.539,309.265 293.5,307.5 Z"/></g>
<g><path style="opacity:0.259" fill="#646464" d="M 332.5,306.5 C 333.11,307.391 333.443,308.391 333.5,309.5C 331.618,308.779 331.285,307.779 332.5,306.5 Z"/></g>
<g><path style="opacity:0.481" fill="#949494" d="M 183.5,307.5 C 182.653,308.966 181.32,309.8 179.5,310C 177.19,310.497 174.857,310.663 172.5,310.5C 176.019,309.368 179.686,308.368 183.5,307.5 Z"/></g>
<g><path style="opacity:0.49" fill="#6e6e6e" d="M 333.5,309.5 C 334.906,309.973 335.573,310.973 335.5,312.5C 334.094,312.027 333.427,311.027 333.5,309.5 Z"/></g>
<g><path style="opacity:0.165" fill="#434343" d="M 323.5,309.5 C 322.833,313.167 322.167,316.833 321.5,320.5C 321.176,316.445 321.509,312.445 322.5,308.5C 323.107,308.624 323.44,308.957 323.5,309.5 Z"/></g>
<g><path style="opacity:0.271" fill="#676767" d="M 335.5,312.5 C 336.906,312.973 337.573,313.973 337.5,315.5C 336.094,315.027 335.427,314.027 335.5,312.5 Z"/></g>
<g><path style="opacity:0.525" fill="#9b9b9b" d="M 218.5,319.5 C 215.814,320.991 212.814,321.657 209.5,321.5C 207.304,321.495 205.304,321.162 203.5,320.5C 208.537,320.587 213.537,320.254 218.5,319.5 Z"/></g>
<g><path style="opacity:0.086" fill="#333333" d="M 352.5,351.5 C 346.545,350.637 340.545,350.303 334.5,350.5C 334.827,360.681 334.494,370.681 333.5,380.5C 333.5,370.167 333.5,359.833 333.5,349.5C 339.176,349.334 344.843,349.501 350.5,350C 351.416,350.278 352.082,350.778 352.5,351.5 Z"/></g>
<g><path style="opacity:0.981" fill="#efefef" d="M 108.5,349.5 C 110.948,350.473 113.615,350.806 116.5,350.5C 116.174,358.684 116.508,366.684 117.5,374.5C 121.167,374.5 124.833,374.5 128.5,374.5C 128.5,377.167 128.5,379.833 128.5,382.5C 121.5,382.5 114.5,382.5 107.5,382.5C 107.172,371.321 107.505,360.321 108.5,349.5 Z"/></g>
<g><path style="opacity:0.114" fill="#272727" d="M 108.5,349.5 C 111.5,349.5 114.5,349.5 117.5,349.5C 117.5,357.833 117.5,366.167 117.5,374.5C 116.508,366.684 116.174,358.684 116.5,350.5C 113.615,350.806 110.948,350.473 108.5,349.5 Z"/></g>
<g><path style="opacity:0.985" fill="#e0e0e0" d="M 155.5,378.5 C 155.5,377.5 155.5,376.5 155.5,375.5C 151.833,375.5 148.167,375.5 144.5,375.5C 144.5,376.5 144.5,377.5 144.5,378.5C 144.461,379.583 144.127,380.583 143.5,381.5C 140.232,382.487 136.898,382.82 133.5,382.5C 136.349,371.777 139.516,361.11 143,350.5C 147.401,349.533 151.901,349.2 156.5,349.5C 158.937,360.322 162.271,370.822 166.5,381C 163.042,382.415 159.375,382.915 155.5,382.5C 155.5,381.167 155.5,379.833 155.5,378.5 Z M 152.5,367.5 C 151.081,368.451 149.415,368.784 147.5,368.5C 148.772,365.652 149.605,362.652 150,359.5C 150.542,362.292 151.376,364.958 152.5,367.5 Z"/></g>
<g><path style="opacity:0.955" fill="#ededed" d="M 185.5,350.5 C 187.008,352.181 188.008,354.181 188.5,356.5C 188.427,358.027 189.094,359.027 190.5,359.5C 191.942,361.637 193.109,363.97 194,366.5C 194.173,360.984 194.673,355.651 195.5,350.5C 198.167,350.5 200.833,350.5 203.5,350.5C 203.5,360.833 203.5,371.167 203.5,381.5C 199.5,381.5 195.5,381.5 191.5,381.5C 188.091,375.685 184.925,369.685 182,363.5C 182.526,369.448 182.526,375.448 182,381.5C 180.431,382.122 178.764,382.456 177,382.5C 175.014,382.431 173.514,381.765 172.5,380.5C 173.494,370.681 173.827,360.681 173.5,350.5C 177.5,350.5 181.5,350.5 185.5,350.5 Z"/></g>
<g><path style="opacity:0.981" fill="#e9e9e9" d="M 231.5,350.5 C 234.719,351.069 237.052,352.736 238.5,355.5C 238.427,357.027 239.094,358.027 240.5,358.5C 244.223,374.039 238.056,382.039 222,382.5C 218.748,382.481 215.915,381.814 213.5,380.5C 214.494,370.681 214.827,360.681 214.5,350.5C 220.167,350.5 225.833,350.5 231.5,350.5 Z M 223.5,358.5 C 229.073,357.773 231.74,360.273 231.5,366C 232.058,371.941 229.391,374.774 223.5,374.5C 223.5,369.167 223.5,363.833 223.5,358.5 Z"/></g>
<g><path style="opacity:0.478" fill="#7f7f7f" d="M 263.5,350.5 C 259.5,350.5 255.5,350.5 251.5,350.5C 251.5,360.833 251.5,371.167 251.5,381.5C 254.059,381.198 256.393,381.532 258.5,382.5C 255.833,382.5 253.167,382.5 250.5,382.5C 250.5,371.5 250.5,360.5 250.5,349.5C 255.032,349.182 259.366,349.515 263.5,350.5 Z"/></g>
<g><path style="opacity:0.988" fill="#f1f1f1" d="M 263.5,350.5 C 265.176,356.871 267.01,363.205 269,369.5C 270.689,363.071 272.522,356.737 274.5,350.5C 278.5,350.5 282.5,350.5 286.5,350.5C 286.5,360.833 286.5,371.167 286.5,381.5C 283.833,381.5 281.167,381.5 278.5,381.5C 278.5,380.833 278.5,380.167 278.5,379.5C 279.816,373.987 279.816,368.32 278.5,362.5C 277.614,363.325 277.281,364.325 277.5,365.5C 277.435,368.428 276.768,371.095 275.5,373.5C 273.837,375.438 273.171,377.772 273.5,380.5C 272.486,381.765 270.986,382.431 269,382.5C 267.5,382.333 266,382.167 264.5,382C 262.66,377.313 261.327,372.48 260.5,367.5C 260.509,365.692 260.009,364.025 259,362.5C 258.36,364.265 258.527,365.932 259.5,367.5C 259.821,372.695 259.487,377.695 258.5,382.5C 256.393,381.532 254.059,381.198 251.5,381.5C 251.5,371.167 251.5,360.833 251.5,350.5C 255.5,350.5 259.5,350.5 263.5,350.5 Z"/></g>
<g><path style="opacity:0.99" fill="#e3e3e3" d="M 315.5,378.5 C 315.5,377.5 315.5,376.5 315.5,375.5C 311.833,375.5 308.167,375.5 304.5,375.5C 304.5,376.5 304.5,377.5 304.5,378.5C 304.5,379.167 304.5,379.833 304.5,380.5C 300.757,382.176 297.424,381.843 294.5,379.5C 298.109,369.74 301.109,359.74 303.5,349.5C 308.099,349.2 312.599,349.533 317,350.5C 320.487,361.121 323.653,371.788 326.5,382.5C 323.102,382.82 319.768,382.487 316.5,381.5C 315.873,380.583 315.539,379.583 315.5,378.5 Z M 309.5,359.5 C 310.484,362.051 311.484,364.718 312.5,367.5C 310.926,368.631 309.259,368.798 307.5,368C 308.991,365.379 309.658,362.545 309.5,359.5 Z"/></g>
<g><path style="opacity:0.974" fill="#ececec" d="M 352.5,351.5 C 358.801,355.154 359.968,360.154 356,366.5C 355.005,367.066 354.172,367.733 353.5,368.5C 352.285,369.779 352.618,370.779 354.5,371.5C 354.427,373.027 355.094,374.027 356.5,374.5C 357.376,374.369 358.043,374.702 358.5,375.5C 360.02,377.662 361.02,379.995 361.5,382.5C 357.818,382.665 354.152,382.499 350.5,382C 348.244,378.594 346.244,375.094 344.5,371.5C 344.44,370.957 344.107,370.624 343.5,370.5C 342.511,374.107 342.177,377.774 342.5,381.5C 339.5,381.5 336.5,381.5 333.5,381.5C 333.5,381.167 333.5,380.833 333.5,380.5C 334.494,370.681 334.827,360.681 334.5,350.5C 340.545,350.303 346.545,350.637 352.5,351.5 Z M 347.5,358.5 C 347.5,359.833 347.5,361.167 347.5,362.5C 346.041,362.433 344.708,362.766 343.5,363.5C 343.5,361.833 343.5,360.167 343.5,358.5C 344.833,358.5 346.167,358.5 347.5,358.5 Z"/></g>
<g><path style="opacity:0.336" fill="#6c6c6c" d="M 376.5,350.5 C 373.833,350.5 371.167,350.5 368.5,350.5C 368.827,360.681 368.494,370.681 367.5,380.5C 367.5,370.167 367.5,359.833 367.5,349.5C 370.713,349.19 373.713,349.523 376.5,350.5 Z"/></g>
<g><path style="opacity:0.989" fill="#e9e9e9" d="M 391.5,356.5 C 390.5,356.833 389.833,357.5 389.5,358.5C 388.391,360.554 387.391,362.721 386.5,365C 388.469,369.774 390.802,374.274 393.5,378.5C 393.414,379.496 393.748,380.329 394.5,381C 391.183,381.498 387.85,381.665 384.5,381.5C 382.619,378.094 380.452,374.761 378,371.5C 376.585,374.958 376.085,378.625 376.5,382.5C 372.988,383.055 369.988,382.388 367.5,380.5C 368.494,370.681 368.827,360.681 368.5,350.5C 371.167,350.5 373.833,350.5 376.5,350.5C 376.185,354.371 376.518,358.038 377.5,361.5C 378.906,361.027 379.573,360.027 379.5,358.5C 380.717,355.603 382.384,352.936 384.5,350.5C 388.107,349.511 391.774,349.177 395.5,349.5C 395.002,352.326 393.669,354.66 391.5,356.5 Z"/></g>
<g><path style="opacity:0.102" fill="#252525" d="M 231.5,350.5 C 225.833,350.5 220.167,350.5 214.5,350.5C 214.827,360.681 214.494,370.681 213.5,380.5C 213.5,370.167 213.5,359.833 213.5,349.5C 219.69,349.177 225.69,349.51 231.5,350.5 Z"/></g>
<g><path style="opacity:0.188" fill="#636363" d="M 238.5,355.5 C 239.906,355.973 240.573,356.973 240.5,358.5C 239.094,358.027 238.427,357.027 238.5,355.5 Z"/></g>
<g><path style="opacity:0.376" fill="#858585" d="M 274.5,350.5 C 278.634,349.515 282.968,349.182 287.5,349.5C 287.5,360.5 287.5,371.5 287.5,382.5C 284.287,382.81 281.287,382.477 278.5,381.5C 281.167,381.5 283.833,381.5 286.5,381.5C 286.5,371.167 286.5,360.833 286.5,350.5C 282.5,350.5 278.5,350.5 274.5,350.5 Z"/></g>
<g><path style="opacity:0.004" fill="#343434" d="M 391.5,356.5 C 391.5,357.833 390.833,358.5 389.5,358.5C 389.833,357.5 390.5,356.833 391.5,356.5 Z"/></g>
<g><path style="opacity:0.114" fill="#2b2b2b" d="M 185.5,350.5 C 181.5,350.5 177.5,350.5 173.5,350.5C 173.827,360.681 173.494,370.681 172.5,380.5C 172.5,370.167 172.5,359.833 172.5,349.5C 177.032,349.182 181.366,349.515 185.5,350.5 Z"/></g>
<g><path style="opacity:0.059" fill="#353535" d="M 188.5,356.5 C 189.906,356.973 190.573,357.973 190.5,359.5C 189.094,359.027 188.427,358.027 188.5,356.5 Z"/></g>
<g><path style="opacity:0.482" fill="#686868" d="M 379.5,358.5 C 379.573,360.027 378.906,361.027 377.5,361.5C 377.427,359.973 378.094,358.973 379.5,358.5 Z"/></g>
<g><path style="opacity:0.063" fill="#191919" d="M 347.5,358.5 C 346.167,358.5 344.833,358.5 343.5,358.5C 343.5,360.167 343.5,361.833 343.5,363.5C 342.539,361.735 342.205,359.735 342.5,357.5C 344.415,357.216 346.081,357.549 347.5,358.5 Z"/></g>
<g><path style="opacity:0.082" fill="#515151" d="M 195.5,350.5 C 198.287,349.523 201.287,349.19 204.5,349.5C 204.5,360.5 204.5,371.5 204.5,382.5C 199.968,382.818 195.634,382.485 191.5,381.5C 195.5,381.5 199.5,381.5 203.5,381.5C 203.5,371.167 203.5,360.833 203.5,350.5C 200.833,350.5 198.167,350.5 195.5,350.5 Z"/></g>
<g><path style="opacity:0.196" fill="#5c5c5c" d="M 260.5,367.5 C 260.167,367.5 259.833,367.5 259.5,367.5C 258.527,365.932 258.36,364.265 259,362.5C 260.009,364.025 260.509,365.692 260.5,367.5 Z"/></g>
<g><path style="opacity:0.431" fill="#676767" d="M 152.5,367.5 C 153.043,367.56 153.376,367.893 153.5,368.5C 152.333,368.833 151.167,369.167 150,369.5C 148.11,369.63 147.277,369.296 147.5,368.5C 149.415,368.784 151.081,368.451 152.5,367.5 Z"/></g>
<g><path style="opacity:0.587" fill="#acacac" d="M 278.5,379.5 C 278.819,374.637 278.486,369.97 277.5,365.5C 277.281,364.325 277.614,363.325 278.5,362.5C 279.816,368.32 279.816,373.987 278.5,379.5 Z"/></g>
<g><path style="opacity:0.216" fill="#565656" d="M 353.5,368.5 C 354.11,369.391 354.443,370.391 354.5,371.5C 352.618,370.779 352.285,369.779 353.5,368.5 Z"/></g>
<g><path style="opacity:0.478" fill="#676767" d="M 354.5,371.5 C 355.906,371.973 356.573,372.973 356.5,374.5C 355.094,374.027 354.427,373.027 354.5,371.5 Z"/></g>
<g><path style="opacity:0.276" fill="#494949" d="M 155.5,378.5 C 151.833,375.833 148.167,375.833 144.5,378.5C 144.5,377.5 144.5,376.5 144.5,375.5C 148.167,375.5 151.833,375.5 155.5,375.5C 155.5,376.5 155.5,377.5 155.5,378.5 Z"/></g>
<g><path style="opacity:0.275" fill="#4c4c4c" d="M 315.5,378.5 C 311.833,375.833 308.167,375.833 304.5,378.5C 304.5,377.5 304.5,376.5 304.5,375.5C 308.167,375.5 311.833,375.5 315.5,375.5C 315.5,376.5 315.5,377.5 315.5,378.5 Z"/></g>
<g><path style="opacity:0.376" fill="#727272" d="M 275.5,373.5 C 275.279,376.067 274.612,378.401 273.5,380.5C 273.171,377.772 273.837,375.438 275.5,373.5 Z"/></g>
<g><path style="opacity:0.157" fill="#2d2d2d" d="M 294.5,379.5 C 297.424,381.843 300.757,382.176 304.5,380.5C 301.316,382.414 297.649,383.08 293.5,382.5C 293.263,381.209 293.596,380.209 294.5,379.5 Z"/></g>
<g><path style="opacity:0.157" fill="#282828" d="M 344.5,371.5 C 343.518,374.962 343.185,378.629 343.5,382.5C 339.958,382.813 336.625,382.479 333.5,381.5C 336.5,381.5 339.5,381.5 342.5,381.5C 342.177,377.774 342.511,374.107 343.5,370.5C 344.107,370.624 344.44,370.957 344.5,371.5 Z"/></g>
<g><path style="opacity:0.161" fill="#393939" d="M 393.5,378.5 C 395.104,379.287 395.771,380.62 395.5,382.5C 391.629,382.815 387.962,382.482 384.5,381.5C 387.85,381.665 391.183,381.498 394.5,381C 393.748,380.329 393.414,379.496 393.5,378.5 Z"/></g>
</svg>
